<svg width="190" height="100" viewBox="0 0 190 100" fill="none" xmlns="http://www.w3.org/2000/svg">
<g clip-path="url(#clip0_4_11)" filter="url(#filter0_d_4_11)">
<path d="M20 10L170 10V70H20L20 10Z" fill="#F0141E"/>
<path d="M146.936 23.9857V14.7973L121.224 14.7973L116.991 45.4819L112.809 14.7973L103.537 14.7973L104.573 22.9909C103.504 20.8909 99.7097 14.7973 91.3547 14.7973C91.2992 14.7937 82.0712 14.7973 82.0712 14.7973L82.0328 59.5225L75.2759 14.7973L63.1307 14.7937L56.1395 61.1338L56.1434 14.7973H44.5178L40.3283 40.8277L36.2471 14.7973H24.6197L24.6197 65.1769H33.7766V40.8937L37.9424 65.1769H42.8096L46.9166 40.8937V65.1769H64.568L65.6354 57.4279H72.7418L73.8092 65.1769L91.1405 65.188H91.1531V65.1769H91.1747V48.8257L93.2969 48.5185L97.6952 65.188H106.66L106.657 65.1769H106.682L100.911 45.6439C103.833 43.4902 107.136 38.0302 106.257 32.8045V32.8027C106.268 32.8705 111.706 65.2105 111.706 65.2105L122.367 65.1775L129.65 19.5166V65.1775H146.935V56.1178H138.732V44.5657H146.935V35.3677H138.732V23.9857H146.936ZM66.7139 49.441L69.23 27.9004L71.837 49.441H66.7139ZM93.3263 39.4945C92.6231 39.8314 91.8911 40 91.1747 40.0018V23.7988C91.1858 23.7988 91.2026 23.797 91.2206 23.797C91.9346 23.7916 97.2815 24.0112 97.2815 31.8097C97.2815 35.8891 95.4635 38.4619 93.3263 39.4945ZM165.382 56.1094V65.1658H148.518V14.7901H157.6V56.1094H165.382Z" fill="white"/>
</g>
<defs>
<filter id="filter0_d_4_11" x="0" y="0" width="190" height="100" filterUnits="userSpaceOnUse" color-interpolation-filters="sRGB">
<feFlood flood-opacity="0" result="BackgroundImageFix"/>
<feColorMatrix in="SourceAlpha" type="matrix" values="0 0 0 0 0 0 0 0 0 0 0 0 0 0 0 0 0 0 127 0" result="hardAlpha"/>
<feOffset dy="10"/>
<feGaussianBlur stdDeviation="10"/>
<feComposite in2="hardAlpha" operator="out"/>
<feColorMatrix type="matrix" values="0 0 0 0 0 0 0 0 0 0 0 0 0 0 0 0 0 0 1 0"/>
<feBlend mode="normal" in2="BackgroundImageFix" result="effect1_dropShadow_4_11"/>
<feBlend mode="normal" in="SourceGraphic" in2="effect1_dropShadow_4_11" result="shape"/>
</filter>
<clipPath id="clip0_4_11">
<rect width="150" height="60" fill="white" transform="translate(20 10)"/>
</clipPath>
</defs>
</svg>
